<svg xmlns="http://www.w3.org/2000/svg" viewBox="0 0 18 17" width="18" height="17">
	<style>
		tspan { white-space:pre }
		.shp0 { fill: #ffffff } 
	</style>
	<path id="Shape 15" class="shp0" d="M16.71 7.12L14.34 4.75L14.34 4.06C14.34 3.19 13.63 2.48 12.76 2.48L12.08 2.48L10.94 1.37C9.86 0.29 8.11 0.29 7.03 1.37L5.89 2.48L5.2 2.48C4.34 2.48 3.63 3.19 3.63 4.06L3.63 4.74L1.2 7.12L1.19 7.12C0.9 7.42 0.73 7.81 0.73 8.23L0.73 15.44C0.73 16.31 1.44 17.02 2.31 17.02L15.6 17.02C16.47 17.02 17.17 16.31 17.17 15.44L17.17 8.23C17.17 7.81 17.01 7.42 16.71 7.12ZM2.26 7.84L3.63 6.5L3.63 9.2L2.26 7.84ZM7.69 2.48L7.91 2.27C7.91 2.27 7.92 2.26 7.92 2.26C8.51 1.67 9.46 1.67 10.05 2.26C10.05 2.26 10.06 2.27 10.06 2.27L10.28 2.48L7.69 2.48ZM14.34 9.16L14.34 6.53L15.65 7.84L14.34 9.16ZM13.17 12.11L14.13 11.15L14.15 11.14L14.17 11.11L15.91 9.37L15.91 14.86L13.17 12.11ZM8.09 10.58C8.33 10.34 8.65 10.21 8.98 10.21C9.32 10.21 9.64 10.34 9.87 10.57L15.03 15.76L2.89 15.76C4 14.65 7.56 11.1 8.09 10.58ZM13.08 10.42L12.29 11.21L10.77 9.68C10.29 9.21 9.66 8.95 8.98 8.95C8.31 8.95 7.68 9.21 7.2 9.68L5.67 11.21L4.89 10.44L4.89 4.06C4.89 3.89 5.03 3.75 5.2 3.75L12.76 3.75C12.94 3.75 13.08 3.89 13.08 4.06L13.08 10.42ZM4.78 12.1L1.99 14.87L1.99 9.35L4.78 12.1ZM6.15 6.58L8.04 6.58C8.39 6.58 8.67 6.3 8.67 5.95C8.67 5.6 8.39 5.32 8.04 5.32L6.15 5.32C5.8 5.32 5.52 5.6 5.52 5.95C5.52 6.3 5.8 6.58 6.15 6.58ZM11.82 7.21L6.15 7.21C5.8 7.21 5.52 7.5 5.52 7.84C5.52 8.19 5.8 8.47 6.15 8.47L11.82 8.47C12.17 8.47 12.45 8.19 12.45 7.84C12.45 7.5 12.17 7.21 11.82 7.21Z" />
</svg>