<svg xmlns="http://www.w3.org/2000/svg" viewBox="0 0 18 17" width="18" height="17">
	<style>
		tspan { white-space:pre }
		.shp0 { fill: #ffffff } 
	</style>
	<path id="Shape 14" class="shp0" d="M16.39 1.41C15.45 0.53 14.2 0.05 12.88 0.05C12.86 0.05 12.85 0.05 12.83 0.05C11.49 0.07 10.24 0.57 9.3 1.47L6.65 4.04C6.38 4.31 6.14 4.6 5.94 4.91C5.31 5.18 5.11 5.32 4.56 5.85L1.91 8.42C0.98 9.32 0.47 10.52 0.48 11.79C0.5 13.06 1.03 14.25 1.98 15.14C2.92 16.01 4.16 16.49 5.48 16.49C5.5 16.49 5.52 16.49 5.54 16.49C6.88 16.48 8.13 15.97 9.06 15.07L11.72 12.5C11.99 12.24 12.22 11.95 12.42 11.64C13.06 11.37 13.26 11.21 13.8 10.69L16.46 8.12C17.39 7.22 17.9 6.02 17.88 4.75C17.87 3.48 17.34 2.29 16.39 1.41ZM13.07 8.35L14.93 6.54C15.44 6.04 15.72 5.38 15.71 4.69C15.7 3.99 15.41 3.34 14.89 2.85C14.37 2.37 13.69 2.11 12.97 2.11C12.96 2.11 12.95 2.11 12.94 2.11C12.2 2.12 11.52 2.4 11.01 2.89L8.18 5.63C7.45 6.33 7.21 7.31 7.53 8.25C7.81 9.08 8.49 9.71 9.33 9.93C9.19 10.09 8.98 10.29 8.83 10.42C8.79 10.47 8.74 10.51 8.7 10.55C8.32 10.39 7.98 10.17 7.65 9.86C6.95 9.21 6.56 8.34 6.55 7.4C6.55 6.81 6.7 6.22 6.99 5.71L6.99 5.7C7 5.7 7 5.69 7.01 5.68C7.17 5.41 7.36 5.15 7.6 4.93L10.25 2.36C10.94 1.7 11.86 1.33 12.84 1.32C12.85 1.32 12.87 1.32 12.88 1.32C13.85 1.32 14.77 1.67 15.45 2.31C16.15 2.96 16.54 3.83 16.55 4.76C16.56 5.7 16.19 6.58 15.51 7.24L13.13 9.54C13.17 9.14 13.14 8.74 13.07 8.35ZM5.3 8.2L3.44 10.01C2.93 10.5 2.65 11.16 2.66 11.86C2.66 12.55 2.95 13.2 3.48 13.69C3.99 14.17 4.67 14.43 5.4 14.43L5.43 14.43C6.16 14.42 6.85 14.15 7.36 13.65L10.19 10.91L10.19 10.91C10.88 10.21 11.14 9.31 10.88 8.43C10.64 7.59 9.95 6.9 9.07 6.58C9.2 6.43 9.41 6.24 9.54 6.11C9.58 6.07 9.62 6.03 9.66 6C10.75 6.47 11.51 7.37 11.74 8.48C11.98 9.63 11.62 10.8 10.77 11.62L8.11 14.18C7.43 14.85 6.51 15.22 5.52 15.23C4.54 15.24 3.61 14.88 2.91 14.24C2.21 13.59 1.82 12.71 1.81 11.78C1.8 10.85 2.17 9.97 2.86 9.3L5.23 7.01C5.2 7.4 5.22 7.8 5.3 8.2ZM7.73 11.49L6.41 12.77C6.15 13.02 5.79 13.16 5.41 13.17C5.41 13.17 5.4 13.17 5.39 13.17C5.02 13.17 4.67 13.03 4.41 12.79C4.14 12.54 3.99 12.2 3.99 11.84C3.98 11.48 4.13 11.14 4.39 10.89L5.77 9.54C6.02 9.99 6.33 10.4 6.72 10.76L6.72 10.76C7.04 11.05 7.37 11.29 7.73 11.49ZM9.58 8.69C9.23 8.55 8.91 8.22 8.79 7.85C9.13 8.01 9.45 8.3 9.58 8.69ZM11.96 3.77C12.22 3.52 12.57 3.38 12.95 3.37C13.33 3.37 13.69 3.51 13.96 3.75C14.23 4 14.38 4.34 14.38 4.7C14.38 5.06 14.24 5.4 13.98 5.65L12.59 7C12.35 6.55 12.03 6.14 11.65 5.78C11.34 5.5 11 5.26 10.63 5.06L11.96 3.77Z" />
</svg>