<svg xmlns="http://www.w3.org/2000/svg" xmlns:xlink="http://www.w3.org/1999/xlink" width="102.687" height="89.812" viewBox="0 0 51.344 44.906">
  <defs>
    <style>
      .cls-1 {
        fill: #663fe7;
        fill-rule: evenodd;
        filter: url(#filter);
      }
    </style>
    <filter id="filter" x="1.813" y="5.5" width="51.344" height="44.906" filterUnits="userSpaceOnUse">
      <feFlood result="flood" flood-color="#896bed"/>
      <feComposite result="composite" operator="in" in2="SourceGraphic"/>
      <feBlend result="blend" in2="SourceGraphic"/>
    </filter>
  </defs>
  <path class="cls-1" d="M49.327,23.617a1.508,1.508,0,0,0-2.018.67L45.646,27.6l-1.663-3.311a1.509,1.509,0,0,0-2.691,0L39.628,27.6l-1.663-3.311a1.572,1.572,0,0,0-2.9.309,1.508,1.508,0,0,0-2.8-.309L30.6,27.6,28.94,24.286a1.509,1.509,0,0,0-2.691,0l-1.706,3.4L22.7,24.251a1.507,1.507,0,0,0-2.786.345,1.571,1.571,0,0,0-2.9-.31L15.359,27.6,13.7,24.286a1.51,1.51,0,0,0-2.691,0L9.341,27.6,7.678,24.286a1.5,1.5,0,0,0-2.691,1.339L8,31.616a1.509,1.509,0,0,0,2.691,0L12.35,28.3l1.663,3.311a1.586,1.586,0,0,0,2.963-.542c2.914-5.8,2.41-4.829,2.942-5.753,0.066,0.261-.152-0.187,3.339,6.33a1.509,1.509,0,0,0,2.673-.035L27.594,28.3l1.663,3.311a1.509,1.509,0,0,0,2.691,0c3.243-6.457,3.063-6.064,3.121-6.293,0.531,0.921.027-.051,2.941,5.751a1.585,1.585,0,0,0,2.963.542L42.637,28.3,44.3,31.616a1.509,1.509,0,0,0,2.691,0L50,25.626A1.494,1.494,0,0,0,49.327,23.617Zm-0.673-6.148h-1.1A22.573,22.573,0,0,0,27.594,5.489,22.885,22.885,0,0,0,7.433,17.468h-1.1A4.508,4.508,0,0,0,1.82,21.961v11.98a4.508,4.508,0,0,0,4.513,4.493h1.1a22.886,22.886,0,0,0,20.161,11.98,22.574,22.574,0,0,0,19.961-11.98h1.1a4.508,4.508,0,0,0,4.513-4.493V21.961A4.508,4.508,0,0,0,48.654,17.468Zm-4.58,0H39.6a23.612,23.612,0,0,0-3.441-7A19.667,19.667,0,0,1,44.074,17.468ZM29.1,8.693c2.963,0.826,5.663,4.047,7.331,8.775H29.1V8.693Zm-3.009,0v8.779H18.564C20.244,12.788,23.057,9.518,26.09,8.69Zm-7.2,1.785a23,23,0,0,0-3.5,6.994H10.916A19.66,19.66,0,0,1,18.889,10.475ZM10.916,38.434H15.39a22.994,22.994,0,0,0,3.5,6.994A19.663,19.663,0,0,1,10.916,38.434ZM26.09,47.212c-3.032-.828-5.845-4.1-7.526-8.779H26.09v8.779Zm3.009,0V38.434H36.43C34.761,43.162,32.061,46.383,29.1,47.209Zm7.057-1.773a23.6,23.6,0,0,0,3.441-7h4.478A19.668,19.668,0,0,1,36.155,45.436Zm14-11.5a1.5,1.5,0,0,1-1.5,1.5H6.333a1.5,1.5,0,0,1-1.5-1.5V21.961a1.5,1.5,0,0,1,1.5-1.5H48.654a1.5,1.5,0,0,1,1.5,1.5v11.98Z" transform="translate(-1.813 -5.5)"/>
</svg>
