<svg xmlns="http://www.w3.org/2000/svg" viewBox="0 0 14 17" width="14" height="17">
	<style>
		tspan { white-space:pre }
		.shp0 { fill: #ffffff } 
	</style>
	<path id="Shape 13" class="shp0" d="M14.09 3.8C14.08 2.76 13.27 1.83 11.8 1.18C10.51 0.61 8.82 0.29 7.04 0.29C5.27 0.29 3.58 0.61 2.28 1.18C0.81 1.83 0 2.76 0 3.8C0 3.81 0 3.82 0 3.82L0 3.82C0 3.83 0 3.83 0 3.84L0 13.52C0 14.52 0.81 15.41 2.28 16.02C3.57 16.56 5.26 16.85 7.04 16.85C8.83 16.85 10.52 16.56 11.8 16.02C13.27 15.41 14.08 14.52 14.08 13.52L14.08 3.87L14.09 3.86L14.09 3.8ZM1.37 12.38C1.64 12.55 1.95 12.7 2.28 12.85C3.57 13.38 5.26 13.67 7.04 13.67C8.83 13.67 10.52 13.38 11.8 12.85C12.14 12.71 12.44 12.55 12.71 12.38L12.71 13.52C12.71 13.91 12.16 14.38 11.27 14.75C10.15 15.22 8.65 15.48 7.04 15.48C5.43 15.48 3.93 15.22 2.81 14.75C1.93 14.38 1.37 13.91 1.37 13.52L1.37 12.38ZM11.27 11.58C10.15 12.04 8.65 12.3 7.04 12.3C5.43 12.3 3.93 12.04 2.81 11.58C1.93 11.21 1.38 10.73 1.38 10.34C1.38 10.33 1.38 10.32 1.37 10.3L1.37 9.2C1.64 9.37 1.95 9.53 2.28 9.67C3.57 10.2 5.26 10.5 7.04 10.5C8.83 10.5 10.52 10.2 11.8 9.67C12.14 9.53 12.44 9.37 12.71 9.2L12.71 10.34C12.71 10.73 12.16 11.21 11.27 11.58ZM11.27 8.4C10.15 8.86 8.65 9.12 7.04 9.12C5.43 9.12 3.93 8.86 2.81 8.4C1.93 8.03 1.37 7.55 1.37 7.16L1.37 7.16L1.37 5.94C1.64 6.12 1.94 6.28 2.28 6.43C3.58 7 5.27 7.32 7.04 7.32C8.82 7.32 10.51 7 11.8 6.43C12.14 6.28 12.44 6.12 12.71 5.94L12.71 7.16C12.71 7.55 12.16 8.03 11.27 8.4ZM11.24 5.17C10.13 5.67 8.63 5.94 7.04 5.94C5.51 5.94 4.06 5.68 2.94 5.21C1.96 4.8 1.38 4.27 1.38 3.8C1.38 3.36 1.94 2.84 2.84 2.44L2.84 2.44C3.96 1.94 5.45 1.67 7.04 1.67C8.63 1.67 10.13 1.94 11.24 2.44C12.15 2.84 12.71 3.36 12.71 3.81C12.71 4.25 12.15 4.77 11.24 5.17Z" />
</svg>