<svg xmlns="http://www.w3.org/2000/svg" viewBox="0 0 17 18" width="17" height="18">
	<style>
		tspan { white-space:pre }
		.shp0 { fill: #ffffff } 
	</style>
	<path id="Shape 12" class="shp0" d="M8.47 0.01C4.12 0.01 0.57 3.55 0.57 7.9L0.57 12.08C0.57 13.03 1.34 13.8 2.29 13.8L2.78 13.8C3.05 14.42 3.67 14.83 4.35 14.83C5.3 14.83 6.06 14.06 6.06 13.11L6.06 8.93C6.06 7.98 5.3 7.21 4.35 7.21C3.67 7.21 3.05 7.62 2.78 8.24L2.29 8.24C2.17 8.24 2.06 8.25 1.95 8.28L1.95 7.9C1.95 4.3 4.87 1.38 8.47 1.38C12.06 1.38 14.99 4.3 14.99 7.9L14.99 8.28C14.87 8.25 14.76 8.24 14.64 8.24L14.16 8.24C13.89 7.62 13.27 7.21 12.58 7.21C11.64 7.21 10.87 7.98 10.87 8.93L10.87 13.11C10.87 14.06 11.64 14.83 12.58 14.83C12.64 14.83 12.69 14.83 12.75 14.82C12.51 15.24 12.05 15.52 11.56 15.52L10.04 15.52C9.77 14.9 9.15 14.49 8.47 14.49C7.52 14.49 6.75 15.26 6.75 16.2C6.75 17.15 7.52 17.92 8.47 17.92C9.15 17.92 9.77 17.51 10.04 16.89L11.56 16.89C13.07 16.89 14.3 15.66 14.3 14.14L14.3 13.8L14.64 13.8C15.59 13.8 16.36 13.03 16.36 12.08L16.36 7.9C16.36 3.55 12.82 0.01 8.47 0.01ZM14.64 12.43L14.3 12.43L14.3 9.61L14.64 9.61C14.83 9.61 14.99 9.77 14.99 9.96L14.99 12.08C14.99 12.27 14.83 12.43 14.64 12.43ZM2.29 9.61L2.63 9.61L2.63 12.43L2.29 12.43C2.1 12.43 1.95 12.27 1.95 12.08L1.95 9.96C1.95 9.77 2.1 9.61 2.29 9.61ZM4.69 13.11C4.69 13.3 4.54 13.46 4.35 13.46C4.16 13.46 4.01 13.3 4.01 13.11L4.01 8.93C4.01 8.74 4.16 8.58 4.35 8.58C4.54 8.58 4.69 8.74 4.69 8.93L4.69 13.11ZM12.24 8.93C12.24 8.74 12.4 8.58 12.58 8.58C12.77 8.58 12.93 8.74 12.93 8.93L12.93 13.11C12.93 13.3 12.77 13.46 12.58 13.46C12.4 13.46 12.24 13.3 12.24 13.11L12.24 8.93ZM8.47 15.86C8.66 15.86 8.81 16.01 8.81 16.2C8.81 16.39 8.66 16.55 8.47 16.55C8.28 16.55 8.12 16.39 8.12 16.2C8.12 16.01 8.28 15.86 8.47 15.86Z" />
</svg>