<svg xmlns="http://www.w3.org/2000/svg" width="17" height="17" viewBox="0 0 17 17">
  <metadata><?xpacket begin="﻿" id="W5M0MpCehiHzreSzNTczkc9d"?>
<x:xmpmeta xmlns:x="adobe:ns:meta/" x:xmptk="Adobe XMP Core 5.6-c138 79.159824, 2016/09/14-01:09:01        ">
   <rdf:RDF xmlns:rdf="http://www.w3.org/1999/02/22-rdf-syntax-ns#">
      <rdf:Description rdf:about=""/>
   </rdf:RDF>
</x:xmpmeta>
                                                                                                    
                                                                                                    
                                                                                                    
                                                                                                    
                                                                                                    
                                                                                                    
                                                                                                    
                                                                                                    
                                                                                                    
                                                                                                    
                                                                                                    
                                                                                                    
                                                                                                    
                                                                                                    
                                                                                                    
                                                                                                    
                                                                                                    
                                                                                                    
                                                                                                    
                                                                                                    
                           
<?xpacket end="w"?></metadata>
<defs>
    <style>
      .cls-1 {
        fill-rule: evenodd;
      }
    </style>
  </defs>
  <path id="Forma_1" data-name="Forma 1" class="cls-1" d="M2.7,12.364a0.386,0.386,0,0,0-.386.386v2.318a0.386,0.386,0,1,0,.773,0V12.75A0.386,0.386,0,0,0,2.7,12.364Zm1.545,0a0.386,0.386,0,0,0-.386.386v2.318a0.386,0.386,0,1,0,.773,0V12.75A0.386,0.386,0,0,0,4.25,12.364Zm1.546,0a0.386,0.386,0,0,0-.386.386v2.318a0.386,0.386,0,1,0,.773,0V12.75A0.386,0.386,0,0,0,5.8,12.364Zm8.114,0.773a0.773,0.773,0,1,1-.773.773A0.773,0.773,0,0,1,13.909,13.136Zm-2.318,0a0.773,0.773,0,1,1-.773.773A0.773,0.773,0,0,1,11.591,13.136Zm5.227-1.5-0.063-.1c-0.01-.016-0.019-0.033-0.03-0.048L13.532,6.324a1.92,1.92,0,0,0-1.643-.915H5.111a1.92,1.92,0,0,0-1.643.915L0.275,11.487c-0.011.016-.019,0.032-0.03,0.048l-0.063.1,0.006,0A1.525,1.525,0,0,0,0,12.364v3.091A1.547,1.547,0,0,0,1.545,17H15.455A1.547,1.547,0,0,0,17,15.455V12.364a1.525,1.525,0,0,0-.188-0.723ZM4.125,6.731a1.151,1.151,0,0,1,.986-0.549h6.777a1.152,1.152,0,0,1,.986.549L15.4,10.818H1.6Zm12.1,8.724a0.774,0.774,0,0,1-.773.773H1.545a0.774,0.774,0,0,1-.773-0.773V12.364a0.774,0.774,0,0,1,.773-0.773H15.455a0.774,0.774,0,0,1,.773.773v3.091ZM1.545,3.091H15.455a1.545,1.545,0,1,0,0-3.091H1.545A1.545,1.545,0,0,0,1.545,3.091ZM11.591,0.773h3.864a0.773,0.773,0,1,1,0,1.545H11.591V0.773Zm-10.045,0h9.273V2.318H1.545A0.773,0.773,0,0,1,1.545.773Z"/>
</svg>
