<svg xmlns="http://www.w3.org/2000/svg" width="20" height="17" viewBox="0 0 20 17">
  <metadata><?xpacket begin="﻿" id="W5M0MpCehiHzreSzNTczkc9d"?>
<x:xmpmeta xmlns:x="adobe:ns:meta/" x:xmptk="Adobe XMP Core 5.6-c138 79.159824, 2016/09/14-01:09:01        ">
   <rdf:RDF xmlns:rdf="http://www.w3.org/1999/02/22-rdf-syntax-ns#">
      <rdf:Description rdf:about=""/>
   </rdf:RDF>
</x:xmpmeta>
                                                                                                    
                                                                                                    
                                                                                                    
                                                                                                    
                                                                                                    
                                                                                                    
                                                                                                    
                                                                                                    
                                                                                                    
                                                                                                    
                                                                                                    
                                                                                                    
                                                                                                    
                                                                                                    
                                                                                                    
                                                                                                    
                                                                                                    
                                                                                                    
                                                                                                    
                                                                                                    
                           
<?xpacket end="w"?></metadata>
<defs>
    <style>
      .cls-1 {
        fill: #464646;
        fill-rule: evenodd;
      }
    </style>
  </defs>
  <path id="Shape_1_copy_2" data-name="Shape 1 copy 2" class="cls-1" d="M18.444,0H1.556A1.544,1.544,0,0,0,0,1.529V15.471A1.544,1.544,0,0,0,1.556,17H18.444A1.544,1.544,0,0,0,20,15.471V1.529A1.544,1.544,0,0,0,18.444,0Zm0.222,15.471a0.221,0.221,0,0,1-.222.219H1.556a0.221,0.221,0,0,1-.222-0.219V4.577H18.667V15.471h0Zm0-12.2H1.333V1.529a0.221,0.221,0,0,1,.222-0.218H18.444a0.221,0.221,0,0,1,.222.218V3.267h0ZM2.8,1.8a0.493,0.493,0,1,1-.5.493A0.5,0.5,0,0,1,2.8,1.8Zm1.608,0a0.493,0.493,0,1,1-.5.493A0.5,0.5,0,0,1,4.412,1.8Zm1.608,0a0.493,0.493,0,1,1-.5.493A0.5,0.5,0,0,1,6.02,1.8ZM3.187,11.512a0.672,0.672,0,0,0,1.2.15l0.408-.631L5.2,11.662a0.672,0.672,0,0,0,1.2-.15L7.173,9.159a0.653,0.653,0,0,0-.429-0.825,0.669,0.669,0,0,0-.84.421L5.565,9.783,5.354,9.458a0.673,0.673,0,0,0-1.125,0l-0.211.325L3.68,8.755a0.669,0.669,0,0,0-.84-0.421,0.653,0.653,0,0,0-.429.825Zm5.208,0a0.672,0.672,0,0,0,1.2.15L10,11.03l0.408,0.631a0.672,0.672,0,0,0,1.2-.15l0.776-2.353a0.653,0.653,0,0,0-.429-0.825,0.669,0.669,0,0,0-.84.421L10.773,9.784l-0.211-.326a0.673,0.673,0,0,0-1.125,0l-0.211.326L8.888,8.755a0.669,0.669,0,0,0-.84-0.421,0.653,0.653,0,0,0-.429.825Zm5.208,0a0.672,0.672,0,0,0,1.2.15l0.408-.631,0.408,0.631a0.672,0.672,0,0,0,1.2-.15l0.776-2.353a0.653,0.653,0,0,0-.429-0.825,0.669,0.669,0,0,0-.84.421L15.981,9.783l-0.211-.325a0.673,0.673,0,0,0-1.125,0l-0.21.325L14.1,8.755a0.669,0.669,0,0,0-.84-0.421,0.653,0.653,0,0,0-.429.825Z"/>
</svg>
